<svg xmlns="http://www.w3.org/2000/svg" xmlns:xlink="http://www.w3.org/1999/xlink" width="500" zoomAndPan="magnify" viewBox="0 0 375 374.999991" height="500" preserveAspectRatio="xMidYMid meet" version="1.0"><defs><clipPath id="c6ea52e6d1"><path d="M 36.042969 72.082031 L 338.957031 72.082031 L 338.957031 375 L 36.042969 375 Z M 36.042969 72.082031 " clip-rule="nonzero"/></clipPath><clipPath id="c5ff9d21a8"><path d="M 187.5 72.082031 C 103.851562 72.082031 36.042969 139.894531 36.042969 223.542969 C 36.042969 307.191406 103.851562 375 187.5 375 C 271.148438 375 338.957031 307.191406 338.957031 223.542969 C 338.957031 139.894531 271.148438 72.082031 187.5 72.082031 " clip-rule="nonzero"/></clipPath><clipPath id="c65392a7aa"><path d="M 133.148438 178.480469 L 241.851562 178.480469 L 241.851562 287 L 133.148438 287 Z M 133.148438 178.480469 " clip-rule="nonzero"/></clipPath><clipPath id="e9ac597bbc"><path d="M 187.5 178.480469 C 157.484375 178.480469 133.148438 202.695312 133.148438 232.5625 C 133.148438 262.433594 157.484375 286.648438 187.5 286.648438 C 217.515625 286.648438 241.851562 262.433594 241.851562 232.5625 C 241.851562 202.695312 217.515625 178.480469 187.5 178.480469 " clip-rule="nonzero"/></clipPath><clipPath id="f1ffcd8092"><path d="M 105 0.105469 L 271 0.105469 L 271 375 L 105 375 Z M 105 0.105469 " clip-rule="nonzero"/></clipPath><clipPath id="615ac33615"><path d="M 43.675781 207 L 88 207 L 88 217 L 43.675781 217 Z M 43.675781 207 " clip-rule="nonzero"/></clipPath><clipPath id="8832368fe0"><path d="M 287 207 L 331.675781 207 L 331.675781 217 L 287 217 Z M 287 207 " clip-rule="nonzero"/></clipPath></defs><g clip-path="url(#c6ea52e6d1)"><g clip-path="url(#c5ff9d21a8)"><path fill="#ffde59" d="M 36.042969 72.082031 L 338.957031 72.082031 L 338.957031 375 L 36.042969 375 Z M 36.042969 72.082031 " fill-opacity="1" fill-rule="nonzero"/></g></g><g clip-path="url(#c65392a7aa)"><g clip-path="url(#e9ac597bbc)"><path fill="#ffffff" d="M 133.148438 178.480469 L 241.851562 178.480469 L 241.851562 286.617188 L 133.148438 286.617188 Z M 133.148438 178.480469 " fill-opacity="1" fill-rule="nonzero"/></g></g><g clip-path="url(#f1ffcd8092)"><path fill="#000000" d="M 256.199219 147.449219 C 256.316406 147.875 256.40625 148.328125 256.558594 148.769531 C 259.253906 156.425781 261.183594 164.265625 262.347656 172.296875 C 263.867188 182.164062 265.546875 192.03125 266.851562 201.933594 C 267.710938 208.453125 268.128906 215.035156 268.578125 221.597656 C 269.199219 230.621094 269.964844 239.652344 270.097656 248.683594 C 270.324219 261.519531 270.695312 274.40625 267.640625 287.050781 C 267.421875 288.140625 267.105469 289.203125 266.691406 290.238281 C 265.5 292.910156 264.269531 295.550781 262.894531 298.183594 C 261.515625 300.679688 259.582031 302.632812 257.097656 304.035156 C 254.863281 305.402344 252.617188 306.761719 250.261719 307.921875 C 248.808594 308.554688 247.308594 309.035156 245.761719 309.371094 C 244.082031 309.820312 242.367188 310.128906 240.445312 310.570312 C 241.304688 312.355469 242.066406 314.1875 242.722656 316.058594 C 243.207031 317.902344 243.550781 319.769531 243.757812 321.664062 C 244.039062 323.625 244.214844 325.597656 244.410156 327.328125 C 246.804688 329.21875 249.113281 330.976562 251.363281 332.824219 C 254.613281 335.484375 255.625 339.273438 256.070312 343.167969 C 256.230469 344.273438 256.273438 345.382812 256.203125 346.496094 C 256.128906 347.609375 255.941406 348.703125 255.640625 349.777344 C 255.339844 350.855469 254.929688 351.886719 254.414062 352.875 C 253.894531 353.863281 253.28125 354.789062 252.570312 355.652344 C 251.976562 356.398438 251.4375 357.183594 250.953125 358.003906 C 249.410156 360.609375 247.269531 362.570312 244.539062 363.886719 C 238.636719 366.625 232.734375 369.410156 226.308594 370.753906 C 218.605469 372.335938 210.839844 373.480469 203.007812 374.191406 C 198.101562 374.707031 193.1875 374.84375 188.261719 374.601562 C 185.222656 374.429688 182.183594 374.898438 179.222656 374.714844 C 173.835938 374.375 168.433594 373.996094 163.101562 373.199219 C 155.269531 372.03125 147.359375 371.042969 139.953125 367.9375 C 137.316406 366.832031 134.632812 365.785156 132.058594 364.605469 C 130.480469 363.921875 129.035156 363.027344 127.722656 361.917969 C 126.410156 360.804688 125.285156 359.53125 124.347656 358.085938 C 123.664062 357.023438 122.921875 355.984375 122.175781 354.960938 C 118.976562 350.535156 118.5 345.6875 119.625 340.464844 C 120.746094 335.242188 124.265625 331.773438 128.59375 329.011719 C 129.257812 328.585938 129.976562 328.253906 130.707031 327.84375 C 131.582031 322.089844 131.367188 316.078125 135.058594 310.660156 C 133.070312 310.191406 131.421875 309.710938 129.742188 309.429688 C 127.679688 309.121094 125.75 308.445312 123.945312 307.398438 C 122.175781 306.34375 120.367188 305.332031 118.628906 304.277344 C 116.941406 303.347656 115.46875 302.15625 114.210938 300.699219 C 112.949219 299.246094 111.980469 297.617188 111.304688 295.816406 C 111.234375 295.585938 111.144531 295.367188 111.03125 295.15625 C 106.953125 288.164062 106.191406 280.3125 105.667969 272.476562 C 104.867188 260.582031 104.96875 248.691406 105.964844 236.808594 C 106.617188 229.140625 106.722656 221.429688 107.414062 213.773438 C 108.175781 205.722656 109.199219 197.691406 110.339844 189.691406 C 111.480469 181.691406 112.695312 173.835938 114.265625 165.984375 C 115.382812 160.402344 117.152344 154.953125 118.644531 149.445312 C 118.824219 148.769531 119.082031 148.109375 119.34375 147.320312 C 118.039062 146.859375 116.898438 146.148438 115.910156 145.183594 C 114.921875 144.21875 114.1875 143.09375 113.699219 141.800781 C 113.316406 140.839844 113.054688 139.84375 112.914062 138.8125 C 112.777344 137.785156 112.761719 136.757812 112.871094 135.726562 C 112.984375 134.695312 113.214844 133.691406 113.570312 132.71875 C 113.921875 131.742188 114.390625 130.824219 114.964844 129.960938 C 115.5625 129.015625 116.304688 128.203125 117.191406 127.519531 C 117.667969 127.214844 118.011719 126.800781 118.226562 126.28125 C 118.445312 125.761719 118.496094 125.222656 118.378906 124.671875 C 117.84375 120.742188 117.367188 116.800781 116.859375 112.871094 C 116.546875 110.269531 116.257812 107.664062 115.960938 105.070312 C 115.308594 99.316406 114.382812 93.585938 114.0625 87.816406 C 113.5625 78.484375 112.816406 69.132812 113.699219 59.738281 C 114.496094 51.191406 117.375 43.546875 123.316406 37.1875 C 124.179688 36.261719 124.894531 35.183594 125.808594 34.304688 C 127.28125 32.878906 128.6875 31.269531 130.417969 30.230469 C 134.070312 27.964844 137.902344 26.074219 141.921875 24.550781 C 148.089844 22.277344 154.167969 19.75 160.257812 17.242188 C 162.78125 16.203125 165.035156 14.746094 167.019531 12.871094 C 168.820312 11.195312 170.757812 9.660156 172.511719 7.9375 C 175.523438 5.019531 179.007812 2.867188 182.964844 1.488281 C 184.433594 0.945312 185.953125 0.667969 187.515625 0.648438 C 189.082031 0.632812 190.601562 0.878906 192.082031 1.390625 C 195.992188 2.675781 199.445312 4.730469 202.4375 7.550781 C 204.390625 9.417969 206.488281 11.125 208.453125 12.972656 C 210.449219 14.832031 212.710938 16.28125 215.238281 17.3125 C 221.316406 19.816406 227.507812 22.09375 233.5625 24.667969 C 237.488281 26.34375 241.257812 28.378906 245.09375 30.265625 C 245.453125 30.449219 245.777344 30.675781 246.066406 30.949219 C 253.464844 37.726562 259.476562 45.371094 261.09375 55.640625 C 261.894531 61.066406 262.199219 66.523438 262.011719 72.007812 C 261.914062 76.136719 261.777344 80.257812 261.511719 84.378906 C 261.304688 87.621094 260.886719 90.847656 260.554688 94.070312 C 260.058594 98.808594 259.605469 103.542969 259.035156 108.265625 C 258.511719 112.757812 257.871094 117.226562 257.289062 121.714844 C 257.226562 122.183594 257.203125 122.660156 257.136719 123.132812 C 257.035156 123.605469 257 124.082031 257.03125 124.566406 C 257.0625 125.050781 257.160156 125.519531 257.324219 125.972656 C 257.488281 126.429688 257.710938 126.851562 257.996094 127.246094 C 258.277344 127.640625 258.609375 127.984375 258.988281 128.285156 C 262.789062 131.625 263.59375 138.097656 261.335938 142.605469 C 260.46875 144.457031 259.46875 145.414062 256.199219 147.449219 Z M 165.53125 111.308594 C 163.707031 111.164062 161.792969 111.109375 159.925781 110.816406 C 158.671875 110.640625 157.488281 110.242188 156.386719 109.621094 C 154.714844 108.613281 154.371094 107.238281 155.269531 105.539062 C 155.777344 104.453125 156.480469 103.511719 157.386719 102.722656 C 161.898438 99.210938 166.824219 96.578125 172.6875 96.175781 C 173.515625 96.113281 174.335938 95.953125 175.203125 95.839844 C 175.089844 93.5625 174.9375 91.582031 174.914062 89.609375 C 174.832031 84.523438 175.671875 79.636719 178.484375 75.28125 C 180.316406 72.433594 182.816406 70.667969 186.394531 70.886719 C 187.105469 70.933594 187.820312 70.933594 188.535156 70.886719 C 192.707031 70.550781 195.5 72.617188 197.453125 76.039062 C 199.484375 79.730469 200.5 83.683594 200.492188 87.894531 C 200.546875 90.496094 200.492188 93.09375 200.492188 95.839844 C 200.890625 95.964844 201.292969 96.046875 201.707031 96.089844 C 207.664062 96.320312 212.785156 98.710938 217.394531 102.261719 C 218.558594 103.226562 219.496094 104.375 220.207031 105.707031 C 220.414062 106.011719 220.546875 106.347656 220.609375 106.710938 C 220.671875 107.074219 220.660156 107.433594 220.566406 107.792969 C 220.476562 108.148438 220.316406 108.472656 220.085938 108.761719 C 219.855469 109.050781 219.578125 109.277344 219.25 109.449219 C 218.097656 110.140625 216.859375 110.59375 215.535156 110.808594 C 213.613281 111.140625 211.644531 111.1875 209.578125 111.367188 C 210.574219 113.886719 211.5625 116.25 210.117188 119.09375 C 208.179688 119.003906 206.25 118.796875 204.335938 118.464844 C 198.738281 117.167969 193.074219 116.726562 187.34375 117.136719 C 184.585938 117.339844 181.851562 117.894531 179.105469 118.359375 C 178.347656 118.488281 177.457031 118.632812 177.761719 119.824219 C 177.980469 119.929688 178.210938 120.003906 178.453125 120.042969 C 179.007812 120.042969 179.5625 119.984375 180.109375 119.9375 C 186.375 119.375 192.628906 119.476562 198.875 120.242188 C 202.976562 120.792969 207.1875 121.683594 211.410156 120.75 C 211.886719 120.671875 212.34375 120.734375 212.785156 120.929688 C 215.0625 121.871094 217.34375 122.8125 219.539062 123.867188 C 220.285156 124.191406 220.871094 124.695312 221.300781 125.386719 C 222.304688 127.3125 223.9375 127.527344 225.859375 127.617188 C 231.9375 127.914062 237.800781 129.242188 243.148438 132.324219 C 243.488281 132.492188 243.839844 132.621094 244.207031 132.71875 C 245.464844 130.859375 246.484375 129.058594 247.800781 127.496094 C 249.257812 125.75 251.484375 125.515625 253.921875 125.296875 C 253.921875 123.285156 253.777344 121.386719 253.921875 119.519531 C 254.804688 109.652344 255.828125 99.785156 256.679688 89.921875 C 257.066406 85.367188 257.027344 80.722656 257.4375 76.144531 C 257.886719 70.355469 257.800781 64.570312 257.1875 58.796875 C 256.695312 53.65625 255.265625 48.808594 252.234375 44.574219 C 250.488281 42.136719 248.4375 39.890625 246.554688 37.5625 C 244.707031 35.433594 242.503906 33.785156 239.9375 32.621094 C 234.003906 29.691406 227.636719 27.945312 221.476562 25.644531 C 214.835938 23.179688 208.316406 20.515625 203.121094 15.414062 C 200.996094 13.269531 198.734375 11.28125 196.328125 9.449219 C 191.769531 6.101562 186.824219 5.03125 181.644531 7.96875 C 179.65625 9.121094 177.808594 10.464844 176.097656 12 C 171.699219 15.886719 167.582031 20.15625 161.960938 22.34375 C 156.050781 24.621094 150.078125 26.769531 144.175781 29.089844 C 140.558594 30.503906 137.011719 32.082031 133.480469 33.699219 C 132.390625 34.207031 131.433594 34.902344 130.609375 35.777344 C 127.746094 38.8125 124.8125 41.847656 122.578125 45.476562 C 120.789062 48.332031 119.566406 51.410156 118.910156 54.714844 C 117.808594 60.421875 117.417969 66.175781 117.746094 71.980469 C 118.179688 79.976562 118.363281 87.976562 119.417969 95.945312 C 120.40625 103.40625 120.761719 110.957031 121.386719 118.464844 C 121.574219 120.742188 121.734375 123.019531 121.917969 125.476562 C 127.234375 125.128906 129.234375 128.894531 131.035156 132.90625 C 131.703125 132.589844 132.21875 132.398438 132.683594 132.148438 C 135.875 130.289062 139.296875 129.078125 142.945312 128.503906 C 145.6875 128.066406 148.453125 127.808594 151.210938 127.527344 C 152.121094 127.433594 152.882812 127.304688 153.382812 126.386719 C 154.433594 124.476562 156.242188 123.488281 158.183594 122.699219 L 162.988281 120.75 C 163.890625 117.402344 164.679688 114.457031 165.53125 111.308594 Z M 172.90625 169.382812 L 172.90625 168.859375 L 171.554688 168.714844 C 168.640625 168.464844 165.699219 168.375 162.820312 167.917969 C 158.863281 167.289062 154.796875 167.160156 151.027344 165.503906 C 149.214844 164.746094 147.277344 164.214844 145.5 163.363281 C 142.308594 161.847656 141.441406 158.886719 143.304688 155.859375 C 143.953125 154.855469 144.765625 154.011719 145.742188 153.324219 C 147.578125 151.980469 149.539062 150.804688 151.195312 149.71875 L 150.4375 137.210938 C 150.367188 137.210938 150.292969 137.113281 150.230469 137.121094 C 144.878906 137.957031 139.742188 139.511719 134.824219 141.789062 C 133.6875 142.300781 132.695312 143.019531 131.855469 143.941406 C 131.015625 144.867188 130.394531 145.917969 129.992188 147.101562 C 129.308594 149.125 128.578125 151.136719 128.003906 153.171875 C 125.144531 163.304688 124.042969 173.699219 123.253906 184.152344 C 122.8125 189.917969 122.496094 195.703125 121.847656 201.457031 C 121.089844 208.234375 120.101562 214.980469 119.3125 221.75 C 118.871094 225.605469 118.550781 229.484375 118.332031 233.363281 C 117.921875 239.609375 117.296875 245.863281 117.289062 252.117188 C 117.289062 260.59375 117.65625 269.078125 118.117188 277.546875 C 118.429688 283.164062 119.90625 288.492188 123.625 292.960938 C 125.828125 295.601562 128.183594 298.117188 131.445312 299.390625 C 134.15625 300.46875 137.066406 301.023438 139.855469 301.910156 C 140.34375 302.082031 140.839844 302.109375 141.34375 301.992188 C 141.847656 301.871094 142.28125 301.628906 142.640625 301.257812 C 146.464844 298.007812 150.574219 295.183594 154.980469 292.78125 C 155.394531 292.527344 155.792969 292.25 156.171875 291.945312 C 155.863281 288.453125 156.511719 285.148438 158.117188 282.035156 C 155.03125 279.636719 152.117188 277.480469 149.304688 275.148438 C 148.84375 274.796875 148.441406 274.386719 148.097656 273.914062 C 147.753906 273.445312 147.488281 272.9375 147.292969 272.390625 C 147.097656 271.839844 146.988281 271.277344 146.957031 270.695312 C 146.925781 270.117188 146.980469 269.542969 147.117188 268.980469 C 147.320312 267.992188 147.679688 267.042969 147.921875 266.210938 C 146.539062 263.402344 144.882812 260.746094 143.878906 257.859375 C 141.542969 251.148438 140.214844 244.242188 139.890625 237.140625 C 139.574219 229.445312 139.738281 221.75 141.199219 214.152344 C 141.480469 213.035156 141.488281 211.914062 141.21875 210.789062 C 140.949219 209.667969 140.4375 208.671875 139.679688 207.800781 C 139.316406 207.339844 139.003906 206.84375 138.738281 206.324219 C 138.472656 205.800781 138.257812 205.257812 138.09375 204.691406 C 137.933594 204.128906 137.824219 203.554688 137.773438 202.972656 C 137.722656 202.386719 137.726562 201.804688 137.785156 201.21875 C 137.847656 200.636719 137.960938 200.0625 138.132812 199.503906 C 138.304688 198.941406 138.523438 198.402344 138.800781 197.882812 C 139.074219 197.363281 139.394531 196.875 139.761719 196.417969 C 140.128906 195.960938 140.539062 195.542969 140.984375 195.164062 C 142.90625 193.554688 145.097656 192.265625 147.253906 190.753906 C 146.667969 187.832031 147.253906 185.125 149.835938 183.027344 C 150.179688 182.695312 150.363281 182.285156 150.382812 181.804688 C 150.453125 178.316406 152.664062 176.394531 155.414062 174.863281 C 155.953125 174.566406 156.476562 174.253906 156.933594 174.011719 C 157.257812 172.09375 156.679688 170.21875 157.84375 168.539062 C 162.796875 170.050781 167.816406 170.332031 172.90625 169.382812 Z M 218.597656 174.164062 C 219.164062 174.460938 219.660156 174.710938 220.117188 174.976562 C 222.796875 176.492188 224.894531 178.359375 225.015625 181.753906 C 225.160156 182.445312 225.503906 183.015625 226.046875 183.46875 C 226.878906 184.238281 227.492188 185.152344 227.886719 186.210938 C 228.28125 187.269531 228.417969 188.363281 228.289062 189.488281 C 228.246094 190.027344 228.160156 190.566406 228.136719 190.769531 C 230.417969 192.371094 232.542969 193.761719 234.550781 195.324219 C 235.34375 195.945312 235.988281 196.695312 236.492188 197.570312 C 236.992188 198.441406 237.308594 199.378906 237.445312 200.378906 C 237.746094 201.800781 237.71875 203.21875 237.355469 204.628906 C 236.992188 206.039062 236.335938 207.296875 235.386719 208.398438 C 234.789062 209.039062 234.375 209.777344 234.144531 210.621094 C 233.917969 211.464844 233.898438 212.3125 234.09375 213.167969 C 235.15625 219.113281 235.683594 225.109375 235.675781 231.152344 C 235.589844 243.507812 234.019531 255.492188 227.316406 266.324219 C 229.550781 270.71875 228.320312 273.222656 225.867188 275.429688 C 224.871094 276.332031 223.792969 277.152344 222.722656 277.957031 C 220.890625 279.324219 219.035156 280.644531 217.160156 282.003906 C 218.8125 285.199219 219.554688 288.59375 219.378906 292.1875 C 220.007812 292.566406 220.5625 292.871094 221.089844 293.226562 C 224.695312 295.671875 228.410156 297.980469 231.84375 300.644531 C 233.480469 301.910156 234.882812 302.386719 236.777344 301.726562 C 239.8125 300.664062 243.125 300.269531 245.890625 298.394531 C 251.816406 294.351562 255.683594 288.886719 256.671875 281.738281 C 257.347656 276.796875 257.691406 271.804688 257.957031 266.816406 C 258.8125 250.925781 257.46875 235.109375 255.890625 219.320312 C 255.242188 212.9375 253.996094 206.609375 253.359375 200.226562 C 252.402344 190.679688 251.839844 181.09375 250.90625 171.546875 C 250.09375 163.300781 248.308594 155.269531 245.550781 147.457031 C 245.089844 146.078125 244.359375 144.863281 243.359375 143.808594 C 242.355469 142.753906 241.175781 141.964844 239.820312 141.4375 C 237.1875 140.359375 234.503906 139.417969 231.753906 138.59375 C 229.527344 137.925781 227.195312 137.507812 224.96875 136.984375 C 224.6875 141.460938 224.429688 145.621094 224.171875 149.785156 C 225.691406 150.71875 227.25 151.625 228.730469 152.664062 C 229.804688 153.347656 230.761719 154.171875 231.601562 155.128906 C 234.054688 158.121094 233.296875 161.785156 229.863281 163.433594 C 227.976562 164.253906 226.054688 164.976562 224.097656 165.601562 C 222.089844 166.316406 220.078125 167 218.019531 167.71875 C 218.195312 169.882812 218.382812 171.917969 218.597656 174.164062 Z M 217.691406 269.964844 C 217.523438 270.359375 217.300781 270.71875 217.023438 271.042969 C 214.757812 273.109375 212.15625 274.585938 209.222656 275.476562 C 207.007812 276.09375 204.769531 276.601562 202.503906 276.992188 C 194.792969 278.320312 187.042969 278.574219 179.257812 277.753906 C 175.011719 277.289062 170.8125 276.378906 166.625 275.515625 C 163.585938 274.882812 161.085938 273.183594 158.746094 271.25 C 158.359375 270.800781 158.046875 270.308594 157.804688 269.769531 C 159.4375 268.910156 160.5625 269.625 161.679688 270.164062 C 166.785156 272.585938 172.316406 272.957031 177.847656 274.0625 C 178.136719 273.355469 178.390625 272.636719 178.605469 271.902344 C 180.019531 265.921875 182.648438 260.410156 185.191406 254.871094 C 185.265625 254.746094 185.347656 254.625 185.433594 254.507812 C 185.640625 254.199219 185.726562 253.863281 185.699219 253.496094 C 185.675781 253.128906 185.539062 252.808594 185.292969 252.53125 C 183.542969 250.074219 182.007812 247.449219 180.078125 245.148438 C 173.878906 237.757812 166.574219 231.539062 159.011719 225.589844 C 154.714844 222.214844 150.410156 218.851562 146.097656 215.496094 C 145.621094 215.125 145.109375 214.804688 144.488281 214.367188 C 144.367188 214.890625 144.28125 215.175781 144.238281 215.472656 C 142.492188 225.640625 142.371094 235.824219 143.871094 246.027344 C 144.761719 251.628906 146.199219 257.042969 149.128906 261.964844 C 150.164062 263.691406 150.863281 265.761719 153.390625 265.996094 C 153.832031 266.042969 154.5 267 154.507812 267.515625 C 154.507812 268.492188 153.566406 268.652344 152.738281 268.660156 C 151.910156 268.667969 151.21875 268.601562 150.550781 268.5625 C 150.359375 268.871094 150.230469 269.203125 150.164062 269.558594 C 150.097656 269.914062 150.097656 270.269531 150.164062 270.625 C 150.226562 270.980469 150.355469 271.3125 150.546875 271.621094 C 150.738281 271.929688 150.976562 272.191406 151.265625 272.410156 C 152.160156 273.308594 153.128906 274.125 154.167969 274.855469 C 156.851562 276.691406 159.636719 278.359375 162.523438 279.863281 C 166.214844 281.640625 169.816406 283.757812 173.988281 284.355469 C 176.097656 284.660156 178.25 284.8125 180.332031 285.273438 C 187.507812 286.84375 194.542969 285.539062 201.601562 284.316406 C 203.328125 284.042969 205 283.5625 206.609375 282.875 C 210.09375 281.351562 213.496094 279.65625 216.8125 277.789062 C 219.308594 276.253906 221.695312 274.554688 223.96875 272.699219 C 224.296875 272.488281 224.578125 272.222656 224.804688 271.90625 C 225.035156 271.589844 225.199219 271.242188 225.292969 270.859375 C 225.390625 270.480469 225.414062 270.097656 225.363281 269.710938 C 225.3125 269.320312 225.191406 268.957031 225 268.613281 C 224.078125 268.671875 223.15625 268.65625 222.234375 268.570312 C 221.6875 268.449219 221.300781 268.132812 221.074219 267.621094 C 221.066406 267.074219 221.253906 266.609375 221.640625 266.222656 C 221.992188 265.875 222.417969 265.683594 222.910156 265.65625 C 224.140625 265.601562 224.703125 264.789062 225.257812 263.886719 C 227.746094 259.96875 229.535156 255.757812 230.628906 251.25 C 233.160156 240.527344 233.007812 229.703125 231.84375 218.851562 C 231.6875 217.378906 231.335938 215.9375 231.023438 214.238281 C 228.402344 216.398438 226.101562 218.457031 223.640625 220.308594 C 216.726562 225.5 209.8125 230.675781 203.507812 236.625 C 198.191406 241.664062 193.375 247.113281 189.675781 253.558594 C 191.15625 256.859375 192.78125 260.128906 194.097656 263.53125 C 195.410156 266.929688 196.421875 270.527344 197.605469 274.15625 C 203.425781 272.957031 209.167969 272.59375 214.378906 269.964844 C 215.292969 269.472656 216.347656 268.925781 217.691406 269.964844 Z M 224.757812 193.351562 C 221.640625 196.023438 218.125 196.902344 214.507812 197.539062 C 212.414062 197.917969 210.332031 198.40625 208.226562 198.679688 C 203.355469 199.316406 198.480469 200.019531 193.585938 200.394531 C 186.753906 200.816406 179.941406 200.585938 173.152344 199.703125 C 168.996094 199.21875 164.902344 198.230469 160.769531 197.515625 C 157.152344 196.886719 153.695312 195.855469 150.664062 193.417969 C 148.558594 198.230469 146.660156 202.820312 145.582031 207.726562 C 145.386719 208.292969 145.371094 208.867188 145.539062 209.445312 C 145.707031 210.023438 146.023438 210.5 146.492188 210.875 C 149.015625 213.042969 151.46875 215.304688 154.050781 217.410156 C 160.265625 222.472656 166.566406 227.417969 172.765625 232.496094 C 178.292969 237.011719 182.863281 242.347656 186.476562 248.503906 C 186.824219 249.09375 187.234375 249.640625 187.714844 250.300781 C 187.976562 250.027344 188.214844 249.730469 188.429688 249.414062 C 193.671875 239.859375 201.722656 232.9375 210.09375 226.3125 C 214.652344 222.714844 219.210938 219.183594 223.730469 215.542969 C 225.636719 214.023438 227.371094 212.242188 229.210938 210.609375 C 229.582031 210.296875 229.839844 209.910156 229.980469 209.441406 C 230.117188 208.972656 230.113281 208.507812 229.96875 208.042969 C 228.875 203.066406 226.984375 198.382812 224.757812 193.351562 Z M 217.488281 133.234375 C 216.597656 133.726562 216.8125 134.410156 216.957031 135.125 C 217.230469 136.117188 217.390625 137.128906 217.433594 138.160156 C 217.375 140.535156 217.097656 142.902344 217 145.269531 C 217.007812 145.917969 216.839844 146.515625 216.496094 147.066406 C 216.152344 147.617188 215.6875 148.03125 215.101562 148.304688 C 214.25 148.730469 213.371094 149.078125 212.457031 149.347656 C 209.417969 150.21875 206.378906 150.105469 203.257812 149.765625 C 198.835938 149.285156 194.378906 148.882812 190.007812 149.960938 C 185.898438 150.976562 181.820312 150.605469 177.730469 150.160156 C 174.359375 149.785156 171.046875 149.035156 167.589844 149.519531 C 165.820312 149.769531 163.972656 149.445312 162.160156 149.375 C 161.941406 148.890625 161.796875 148.386719 161.726562 147.859375 C 161.816406 144.777344 161.921875 141.695312 162.113281 138.613281 C 162.167969 137.789062 162.296875 137.097656 161.164062 136.65625 C 160.957031 137.269531 160.601562 137.796875 160.660156 138.265625 C 160.996094 140.914062 160.328125 143.449219 159.828125 146 C 159.25 148.875 159.234375 148.875 156.363281 149.148438 C 156.042969 149.136719 155.730469 149.179688 155.425781 149.285156 C 154.988281 149.527344 154.355469 149.816406 154.242188 150.21875 C 154.015625 150.976562 154.667969 151.265625 155.34375 151.441406 C 156.390625 151.714844 157.425781 152.039062 158.246094 152.285156 C 159.765625 156.433594 158.070312 160.738281 159.949219 164.738281 C 161.195312 164.070312 161.1875 162.976562 161.277344 162.027344 C 161.414062 160.617188 161.324219 159.183594 161.414062 157.753906 C 161.519531 156.054688 161.71875 154.355469 161.898438 152.320312 C 167.011719 152.722656 171.859375 152.824219 176.609375 153.550781 C 181.226562 154.257812 185.722656 155.121094 190.496094 154.933594 C 199.132812 154.582031 207.800781 154.863281 216.210938 152.367188 C 217.113281 152.101562 218.058594 151.910156 218.929688 151.609375 C 219.273438 151.496094 219.589844 151.332031 219.878906 151.113281 C 220.164062 150.890625 220.40625 150.628906 220.601562 150.328125 C 220.796875 150.023438 220.933594 149.695312 221.015625 149.34375 C 221.097656 148.992188 221.117188 148.636719 221.074219 148.277344 C 220.996094 146.933594 221.074219 145.574219 220.945312 144.238281 C 220.648438 141.40625 220.496094 138.53125 219.308594 135.890625 C 218.863281 134.886719 218.664062 133.710938 217.488281 133.234375 Z M 178.121094 95.398438 L 197.363281 95.398438 C 197.839844 90.210938 197.863281 85.09375 196.019531 80.144531 C 194.285156 75.5 191.886719 74.628906 188.617188 74.679688 C 188.0625 74.679688 187.507812 74.679688 186.953125 74.679688 C 182.738281 74.808594 180.878906 76.199219 179.394531 80.265625 C 177.617188 85.167969 177.71875 90.210938 178.121094 95.398438 Z M 123.359375 301.5625 L 123.757812 300.902344 C 122.523438 299.832031 121.292969 298.753906 120.046875 297.691406 C 118.703125 296.617188 117.59375 295.339844 116.710938 293.863281 C 115.828125 292.390625 115.230469 290.804688 114.921875 289.113281 C 114.382812 286.078125 113.460938 283.109375 112.882812 280.082031 C 112.148438 276.757812 111.640625 273.398438 111.367188 270.003906 C 111.054688 263.832031 111.03125 257.648438 111.054688 251.46875 C 111.054688 247.273438 111.136719 243.0625 111.546875 238.886719 C 112.019531 234.089844 112.898438 229.324219 113.570312 224.542969 C 113.664062 223.835938 113.664062 223.132812 113.570312 222.425781 C 113.441406 222.128906 113.222656 221.949219 112.90625 221.886719 C 112.585938 221.890625 112.335938 222.023438 112.148438 222.28125 C 111.933594 222.707031 111.792969 223.152344 111.730469 223.625 C 111.34375 225.902344 110.96875 228.179688 110.628906 230.457031 C 110.011719 234.84375 109.175781 239.230469 108.933594 243.636719 C 108.578125 250.121094 108.578125 256.625 108.601562 263.121094 C 108.628906 266.449219 108.851562 269.765625 109.261719 273.070312 C 109.960938 279.074219 111.660156 284.855469 113.453125 290.601562 C 114.117188 292.703125 115.128906 294.621094 116.496094 296.355469 C 117.859375 298.085938 119.488281 299.519531 121.378906 300.65625 C 122.019531 301 122.679688 301.300781 123.359375 301.5625 Z M 163.136719 351.433594 C 163.898438 352.949219 165.136719 353.039062 166.125 353.160156 C 170.371094 353.699219 174.617188 354.347656 178.886719 354.511719 C 188.003906 354.855469 197.121094 354.785156 206.167969 353.238281 C 212.722656 352.113281 219.308594 351.121094 225.84375 349.867188 C 227.910156 349.472656 229.871094 348.488281 231.84375 347.683594 C 232.316406 347.484375 232.605469 346.921875 233.007812 346.519531 L 232.742188 346.074219 C 232.140625 346.054688 231.542969 346.097656 230.949219 346.210938 C 223.160156 348.488281 215.148438 349.558594 207.140625 350.710938 C 198.882812 351.933594 190.582031 352.398438 182.238281 352.097656 C 176.851562 351.894531 171.464844 351.554688 166.078125 351.300781 C 165.191406 351.234375 164.292969 351.355469 163.136719 351.410156 Z M 146.335938 323.777344 L 146.015625 324.625 C 146.667969 325.09375 147.34375 325.523438 148.042969 325.914062 C 150.535156 327.136719 153.085938 328.246094 155.550781 329.519531 C 159.40625 331.535156 163.507812 332.640625 167.855469 332.84375 C 174.90625 333.222656 181.964844 333.542969 189.019531 333.914062 C 193.503906 334.042969 197.882812 333.4375 202.164062 332.101562 C 202.921875 331.894531 203.996094 331.820312 203.773438 330.296875 C 202.816406 330.386719 201.890625 330.46875 200.964844 330.574219 C 196.078125 331.265625 191.167969 331.46875 186.242188 331.191406 C 180.46875 330.742188 174.6875 330.347656 168.898438 330.042969 C 164.488281 329.84375 160.277344 328.820312 156.269531 326.972656 C 153.902344 325.871094 151.4375 324.960938 148.976562 324.078125 C 148.109375 323.867188 147.226562 323.757812 146.335938 323.753906 Z M 180.878906 274.460938 C 185.5 275.578125 190.125 275.578125 194.75 274.460938 C 193.59375 268.175781 190.617188 262.878906 187.761719 257.054688 C 184.933594 262.855469 181.757812 268.167969 180.878906 274.460938 Z M 167.742188 110.367188 C 168.253906 110.398438 168.757812 110.367188 169.261719 110.277344 C 170.164062 109.996094 171.023438 109.578125 171.90625 109.226562 C 178.796875 106.503906 185.867188 105.105469 193.277344 106.40625 C 196.390625 106.945312 199.488281 107.574219 202.589844 108.203125 C 203.21875 108.332031 203.835938 108.621094 204.246094 107.511719 C 203.726562 107.105469 203.171875 106.746094 202.589844 106.433594 C 201.148438 105.789062 199.675781 105.21875 198.175781 104.71875 C 189.507812 101.964844 180.96875 102.800781 172.574219 105.875 C 171.121094 106.5 169.753906 107.273438 168.472656 108.195312 C 168.269531 108.28125 168.09375 108.402344 167.941406 108.5625 C 167.792969 108.722656 167.683594 108.90625 167.613281 109.117188 C 167.542969 109.324219 167.519531 109.535156 167.542969 109.753906 C 167.5625 109.972656 167.632812 110.175781 167.742188 110.367188 Z M 194.960938 188.425781 C 194.488281 188.34375 194.011719 188.292969 193.535156 188.28125 C 181.050781 188.910156 168.808594 187.480469 156.808594 183.992188 C 155.851562 183.800781 154.878906 183.695312 153.902344 183.671875 L 153.648438 184.175781 C 153.9375 184.5625 154.144531 185.136719 154.523438 185.304688 C 156.390625 186.179688 158.304688 186.941406 160.265625 187.582031 C 166.171875 189.222656 172.179688 190.253906 178.292969 190.679688 C 183.238281 191.199219 188.128906 190.875 192.964844 189.714844 C 193.640625 189.511719 194.550781 189.570312 194.960938 188.425781 Z M 252.835938 151.539062 C 251.316406 152.535156 251.558594 153.542969 251.664062 154.453125 C 252.0625 157.839844 252.546875 161.207031 252.941406 164.59375 C 253.914062 172.875 255.820312 180.980469 257.589844 189.109375 C 257.640625 190.054688 258.023438 190.832031 258.746094 191.445312 C 258.707031 190.6875 258.746094 190.183594 258.664062 189.722656 C 257.773438 181.851562 256.953125 173.972656 255.957031 166.113281 C 255.449219 162.105469 254.660156 158.136719 253.914062 154.164062 C 253.640625 153.253906 253.28125 152.378906 252.835938 151.539062 Z M 142.613281 205.933594 C 143.058594 204.507812 143.410156 203.292969 143.820312 202.101562 C 144.230469 200.910156 144.691406 199.734375 145.15625 198.554688 C 145.582031 197.492188 146.320312 196.53125 146.585938 195.019531 C 140.773438 199.011719 139.511719 202.480469 142.613281 205.933594 Z M 228.738281 194.996094 C 229.703125 197.214844 230.5 198.914062 231.167969 200.652344 C 231.835938 202.390625 232.339844 204.082031 232.992188 206.015625 C 235.804688 202.09375 234.472656 198.671875 228.738281 194.996094 Z M 252.554688 139.070312 C 254.414062 138.3125 254.789062 136.792969 254.832031 135.175781 C 254.832031 134.417969 254.832031 133.546875 253.867188 133.234375 C 253.625 133.15625 253.371094 133.125 253.117188 133.136719 C 252.859375 133.152344 252.613281 133.210938 252.378906 133.316406 C 252.144531 133.421875 251.933594 133.566406 251.753906 133.746094 C 251.570312 133.929688 251.429688 134.136719 251.324219 134.371094 C 250.199219 137.082031 250.007812 136.703125 252.523438 139.070312 Z M 125.0625 136.871094 C 123.800781 133 123.726562 132.929688 121.089844 133.492188 C 120.199219 136.300781 120.730469 137.832031 123.15625 139.023438 Z M 160.996094 130.996094 C 160.03125 132.4375 160 133.710938 160.929688 134.03125 C 161.453125 134.15625 161.914062 134.039062 162.308594 133.675781 C 163.085938 132.824219 162.683594 132.027344 160.996094 131.003906 Z M 208.042969 330.105469 C 208.792969 330.523438 209.574219 330.878906 210.382812 331.167969 C 211.144531 331.34375 211.980469 330.574219 211.722656 329.984375 C 211.425781 329.453125 210.976562 329.148438 210.375 329.074219 C 209.746094 329.097656 209.175781 329.582031 208.042969 330.113281 Z M 199.222656 187.097656 C 198.625 187.621094 197.847656 187.960938 197.757812 188.441406 C 197.574219 189.367188 198.417969 189.523438 199.164062 189.515625 C 200.113281 189.515625 201.054688 188.757812 200.773438 188.25 C 200.492188 187.742188 199.871094 187.574219 199.222656 187.097656 Z M 262.378906 211.09375 C 261.714844 210.496094 261.359375 209.902344 260.902344 209.8125 C 260.082031 209.636719 259.800781 210.367188 259.976562 210.996094 C 260.222656 211.511719 260.542969 211.96875 260.941406 212.378906 Z M 259.453125 197.5 C 258.957031 199.382812 258.957031 199.382812 259.734375 200.628906 C 260.851562 199.390625 260.851562 199.347656 259.453125 197.5 Z M 174.425781 169.730469 C 175.445312 169.574219 175.945312 169.511719 176.480469 169.390625 C 176.539062 169.390625 176.59375 168.859375 176.480469 168.78125 C 175.832031 168.257812 175.246094 168.367188 174.425781 169.730469 Z M 174.425781 169.730469 " fill-opacity="1" fill-rule="nonzero"/></g><path fill="#000000" d="M 52.769531 277.007812 C 51.5625 277.007812 50.742188 276.597656 50.429688 275.542969 C 50.355469 275.332031 50.324219 275.113281 50.328125 274.890625 C 50.332031 274.664062 50.378906 274.449219 50.460938 274.238281 C 50.542969 274.03125 50.660156 273.84375 50.8125 273.675781 C 50.960938 273.507812 51.136719 273.371094 51.335938 273.265625 C 51.8125 272.980469 52.320312 272.757812 52.855469 272.601562 C 64.503906 268.75 76.167969 264.910156 87.851562 261.085938 C 89.128906 260.667969 90.445312 260.328125 91.757812 260.070312 C 91.96875 259.992188 92.183594 259.957031 92.40625 259.964844 C 92.628906 259.972656 92.84375 260.023438 93.046875 260.113281 C 93.25 260.207031 93.429688 260.332031 93.585938 260.496094 C 93.738281 260.65625 93.855469 260.839844 93.9375 261.046875 C 94.324219 262.082031 93.632812 262.71875 92.828125 263.128906 C 91.773438 263.675781 90.683594 264.152344 89.5625 264.546875 C 77.710938 268.59375 65.855469 272.621094 53.992188 276.621094 C 53.546875 276.804688 53.089844 276.917969 52.769531 277.007812 Z M 52.769531 277.007812 " fill-opacity="1" fill-rule="nonzero"/><path fill="#000000" d="M 283.0625 259.925781 C 284.324219 260.242188 285.265625 260.417969 286.171875 260.683594 C 296.714844 264.113281 307.257812 267.550781 317.796875 271 C 319.378906 271.503906 320.953125 272.03125 322.53125 272.578125 C 323.058594 272.738281 323.566406 272.953125 324.050781 273.222656 C 324.265625 273.328125 324.457031 273.472656 324.617188 273.652344 C 324.78125 273.832031 324.90625 274.035156 324.988281 274.261719 C 325.074219 274.492188 325.113281 274.726562 325.109375 274.96875 C 325.105469 275.210938 325.054688 275.441406 324.960938 275.664062 C 324.882812 275.894531 324.765625 276.101562 324.613281 276.285156 C 324.457031 276.472656 324.277344 276.625 324.066406 276.742188 C 323.855469 276.863281 323.632812 276.9375 323.394531 276.976562 C 323.15625 277.011719 322.917969 277.007812 322.683594 276.957031 C 322.210938 276.882812 321.757812 276.757812 321.3125 276.585938 C 309.613281 272.613281 297.914062 268.636719 286.214844 264.652344 C 284.949219 264.199219 283.710938 263.671875 282.507812 263.066406 C 281.75 262.695312 281.148438 261.964844 281.550781 261.148438 C 281.847656 260.578125 282.675781 260.25 283.0625 259.925781 Z M 283.0625 259.925781 " fill-opacity="1" fill-rule="nonzero"/><g clip-path="url(#615ac33615)"><path fill="#000000" d="M 85.253906 216.042969 C 81.089844 215.511719 76.898438 214.996094 72.765625 214.441406 C 64.042969 213.273438 55.34375 212.011719 46.609375 210.988281 C 44.679688 210.761719 43.691406 209.734375 43.851562 208.710938 C 44.050781 207.414062 45.25 206.867188 47.253906 207.195312 C 54.441406 208.371094 61.6875 209.296875 68.882812 210.335938 C 74.199219 211.09375 79.519531 211.898438 84.875 212.6875 C 85.109375 212.6875 85.351562 212.734375 85.582031 212.785156 C 87.101562 213.113281 87.722656 213.691406 87.640625 214.644531 C 87.554688 215.601562 86.773438 216.082031 85.253906 216.042969 Z M 85.253906 216.042969 " fill-opacity="1" fill-rule="nonzero"/></g><g clip-path="url(#8832368fe0)"><path fill="#000000" d="M 289.929688 216.074219 C 289.621094 216.035156 289.21875 216.109375 289.003906 215.945312 C 288.542969 215.585938 287.894531 215.132812 287.851562 214.660156 C 287.867188 214.363281 287.953125 214.085938 288.113281 213.832031 C 288.273438 213.578125 288.484375 213.378906 288.746094 213.234375 C 290.109375 212.816406 291.496094 212.519531 292.910156 212.339844 C 304.828125 210.597656 316.746094 208.875 328.667969 207.171875 C 328.980469 207.113281 329.292969 207.082031 329.609375 207.070312 C 329.851562 207.0625 330.085938 207.09375 330.3125 207.171875 C 330.539062 207.25 330.746094 207.367188 330.929688 207.523438 C 331.113281 207.675781 331.261719 207.859375 331.375 208.074219 C 331.488281 208.285156 331.558594 208.511719 331.585938 208.75 C 331.613281 208.988281 331.59375 209.222656 331.53125 209.457031 C 331.464844 209.6875 331.359375 209.898438 331.210938 210.089844 C 331.0625 210.28125 330.886719 210.433594 330.675781 210.554688 C 330.46875 210.675781 330.246094 210.75 330.003906 210.785156 C 328.835938 211.011719 327.644531 211.085938 326.464844 211.246094 L 298.894531 214.925781 C 295.910156 215.320312 292.925781 215.695312 289.929688 216.074219 Z M 289.929688 216.074219 " fill-opacity="1" fill-rule="nonzero"/></g><path fill="#000000" d="M 100.949219 162.566406 C 100.949219 163.5625 100.457031 164.007812 99.75 163.828125 C 98.980469 163.621094 98.277344 163.28125 97.636719 162.808594 C 94.476562 160.535156 91.308594 158.316406 88.21875 155.980469 C 81.269531 150.71875 74.34375 145.425781 67.449219 140.101562 C 66.035156 139.015625 65.730469 138.210938 66.332031 137.402344 C 66.929688 136.589844 67.851562 136.589844 69.242188 137.628906 C 78.945312 145.011719 88.640625 152.40625 98.328125 159.820312 C 99.023438 160.347656 99.679688 160.921875 100.296875 161.542969 C 100.558594 161.855469 100.773438 162.199219 100.949219 162.566406 Z M 100.949219 162.566406 " fill-opacity="1" fill-rule="nonzero"/><path fill="#000000" d="M 275.882812 163.910156 C 274.609375 163.835938 274.128906 162.976562 274.660156 162.179688 C 275.082031 161.601562 275.578125 161.097656 276.144531 160.664062 C 278.921875 158.429688 281.6875 156.175781 284.5 154.015625 C 291.695312 148.550781 298.910156 143.105469 306.136719 137.679688 L 306.515625 137.394531 C 307.359375 136.777344 308.234375 136.46875 309.0625 137.394531 C 309.683594 138.066406 309.457031 138.964844 308.40625 139.820312 C 307.0625 140.921875 305.664062 141.976562 304.273438 143.023438 C 295.59375 149.550781 286.90625 156.066406 278.21875 162.574219 C 277.46875 163.070312 276.691406 163.515625 275.882812 163.910156 Z M 275.882812 163.910156 " fill-opacity="1" fill-rule="nonzero"/><path fill="#000000" d="M 72.140625 242.539062 C 70.621094 242.539062 69.75 241.90625 69.621094 240.882812 C 69.492188 239.859375 70.25 238.871094 71.664062 238.765625 C 75.378906 238.484375 79.09375 238.226562 82.816406 238.058594 C 84.921875 237.96875 85.855469 238.46875 85.984375 239.464844 C 86.113281 240.457031 85.347656 241.171875 83.234375 241.421875 C 79.457031 241.878906 75.667969 242.1875 72.140625 242.539062 Z M 72.140625 242.539062 " fill-opacity="1" fill-rule="nonzero"/><path fill="#000000" d="M 293.949219 238.023438 C 297.269531 238.273438 300.582031 238.484375 303.894531 238.78125 C 305.207031 238.894531 305.878906 239.667969 305.824219 240.746094 C 305.820312 241.007812 305.761719 241.261719 305.648438 241.496094 C 305.535156 241.734375 305.378906 241.941406 305.179688 242.109375 C 304.976562 242.28125 304.75 242.402344 304.496094 242.476562 C 304.246094 242.550781 303.988281 242.566406 303.726562 242.53125 C 299.699219 242.1875 295.691406 241.769531 291.671875 241.359375 C 291.433594 241.34375 291.199219 241.296875 290.972656 241.226562 C 290.210938 240.964844 289.453125 240.5625 289.511719 239.601562 C 289.574219 238.636719 290.273438 238.21875 291.101562 238.136719 C 292.050781 238.085938 293 238.085938 293.949219 238.136719 Z M 293.949219 238.023438 " fill-opacity="1" fill-rule="nonzero"/><path fill="#000000" d="M 301.789062 182.203125 C 301.539062 182.496094 301.207031 183.25 300.652344 183.484375 C 296.722656 185.160156 292.757812 186.746094 288.785156 188.316406 C 288.605469 188.417969 288.417969 188.476562 288.214844 188.5 C 288.011719 188.523438 287.816406 188.503906 287.621094 188.449219 C 287.425781 188.390625 287.25 188.296875 287.089844 188.171875 C 286.933594 188.042969 286.808594 187.890625 286.710938 187.710938 C 286.203125 186.710938 286.761719 185.996094 287.605469 185.585938 C 290.644531 184.105469 293.753906 182.671875 296.84375 181.238281 C 297.691406 180.804688 298.566406 180.441406 299.472656 180.152344 C 300.6875 179.808594 301.789062 180.660156 301.789062 182.203125 Z M 301.789062 182.203125 " fill-opacity="1" fill-rule="nonzero"/><path fill="#000000" d="M 87.390625 188.539062 C 86.53125 188.265625 85.992188 188.128906 85.484375 187.921875 C 82.179688 186.578125 78.886719 185.222656 75.605469 183.863281 C 75.160156 183.699219 74.746094 183.476562 74.359375 183.195312 C 74.195312 183.078125 74.054688 182.9375 73.945312 182.769531 C 73.832031 182.601562 73.753906 182.417969 73.707031 182.222656 C 73.664062 182.023438 73.65625 181.824219 73.6875 181.625 C 73.71875 181.425781 73.78125 181.238281 73.882812 181.0625 C 74.050781 180.691406 74.320312 180.417969 74.6875 180.242188 C 75.058594 180.066406 75.4375 180.027344 75.835938 180.128906 C 76.222656 180.210938 76.59375 180.339844 76.953125 180.515625 L 86.675781 184.941406 C 87.210938 185.113281 87.683594 185.386719 88.097656 185.769531 C 88.566406 186.273438 88.789062 186.871094 88.765625 187.558594 C 88.621094 188.03125 87.761719 188.296875 87.390625 188.539062 Z M 87.390625 188.539062 " fill-opacity="1" fill-rule="nonzero"/><path fill="#000000" d="M 190.835938 281.90625 C 190.480469 282.15625 190.152344 282.542969 189.757812 282.625 C 188.460938 282.996094 187.140625 283.207031 185.792969 283.261719 C 182.078125 283.261719 178.371094 283.058594 174.679688 282.648438 C 172.632812 282.382812 170.675781 281.320312 168.714844 280.5 C 168.03125 280.210938 167.269531 279.742188 167.710938 278.574219 C 169.734375 277.972656 171.457031 279.332031 173.355469 279.589844 C 175.253906 279.847656 177.246094 280.226562 179.207031 280.453125 C 181.167969 280.683594 183.003906 280.78125 184.882812 280.902344 C 186.757812 281.023438 188.777344 281.128906 190.722656 281.238281 Z M 190.835938 281.90625 " fill-opacity="1" fill-rule="nonzero"/><path fill="#000000" d="M 196.730469 280.363281 C 196.171875 282.164062 195.257812 282.792969 194.132812 282.382812 C 193.699219 282.203125 193.421875 281.886719 193.304688 281.433594 C 193.351562 280.964844 193.582031 280.621094 194.003906 280.410156 C 194.914062 280.320312 195.820312 280.304688 196.730469 280.363281 Z M 196.730469 280.363281 " fill-opacity="1" fill-rule="nonzero"/></svg>